<?xml version="1.0" encoding="UTF-8" standalone="no"?>
<svg
   viewBox="0 0 126 126"
   fill-rule="evenodd"
   version="1.1"
   id="svg2"
   xml:space="preserve"
   xmlns="http://www.w3.org/2000/svg"
   xmlns:svg="http://www.w3.org/2000/svg"><defs
     id="defs2" /><path
     d="M4 122v-20l20 20H4Zm118 0v-20l-20 20h20Zm0-118v20L102 4h20ZM4 4v20L24 4H4Z"
     fill="#fe5bff"
     id="path1"
     style="fill:#fe5bff;fill-opacity:1" /><path
     style="font-weight:500;font-size:106.667px;font-family:'Noto Sans';-inkscape-font-specification:'Noto Sans Medium';fill:#ff5bff"
     d="m 54.77478,80.71187 q 0,-5.866685 1.920006,-9.60003 2.026673,-3.840012 7.253356,-8.106692 3.840012,-3.093343 6.080019,-5.226683 2.240007,-2.240007 3.093343,-4.373347 0.960003,-2.13334 0.960003,-5.120016 0,-4.586681 -3.093343,-7.040022 -2.986676,-2.453341 -8.746694,-2.453341 -5.013349,0 -9.173362,1.386671 -4.160013,1.280004 -8.106692,3.20001 L 40.90807,34.84506 q 4.586681,-2.453341 10.026698,-4.053346 5.440017,-1.600005 12.053371,-1.600005 10.453366,0 16.106717,5.120016 5.760018,5.120016 5.760018,13.653376 0,4.586681 -1.493338,8.000025 -1.493338,3.306677 -4.373347,6.080019 -2.773342,2.773342 -6.613354,5.973352 -3.520011,2.773342 -5.33335,4.800015 -1.706672,2.026673 -2.346674,4.053346 -0.640002,2.026673 -0.640002,4.800015 v 2.13334 H 54.77478 Z m -2.240007,19.41339 q 0,-4.160009 2.026673,-5.866681 2.13334,-1.706672 5.33335,-1.706672 2.880009,0 5.013349,1.706672 2.240007,1.706672 2.240007,5.866681 0,4.16002 -2.240007,5.97336 -2.13334,1.81334 -5.013349,1.81334 -3.20001,0 -5.33335,-1.81334 -2.026673,-1.81334 -2.026673,-5.97336 z"
     id="text2"
     aria-label="?" /></svg>
